<svg width="20" height="21" viewBox="0 0 20 21" fill="none" xmlns="http://www.w3.org/2000/svg">
<path d="M18.3571 17.2657C17.8831 16.143 17.1953 15.1232 16.3319 14.2632C15.4712 13.4006 14.4516 12.7129 13.3294 12.2381C13.3194 12.233 13.3093 12.2305 13.2993 12.2255C14.8646 11.0948 15.8822 9.25314 15.8822 7.17525C15.8822 3.73304 13.0932 0.944092 9.65103 0.944092C6.20882 0.944092 3.41988 3.73304 3.41988 7.17525C3.41988 9.25314 4.43747 11.0948 6.00279 12.228C5.99274 12.233 5.98269 12.2355 5.97264 12.2406C4.84701 12.7154 3.83696 13.3964 2.97013 14.2657C2.10759 15.1264 1.41989 16.146 0.945004 17.2682C0.478477 18.3668 0.226868 19.5447 0.203798 20.7381C0.203128 20.7649 0.207831 20.7916 0.217632 20.8165C0.227433 20.8415 0.242132 20.8643 0.260865 20.8835C0.279597 20.9027 0.301983 20.9179 0.326703 20.9283C0.351424 20.9387 0.377979 20.9441 0.404803 20.9441H1.91234C2.02289 20.9441 2.11083 20.8562 2.11335 20.7481C2.1636 18.8084 2.94249 16.9918 4.31938 15.6149C5.744 14.1903 7.63596 13.4064 9.65103 13.4064C11.6661 13.4064 13.5581 14.1903 14.9827 15.6149C16.3596 16.9918 17.1385 18.8084 17.1887 20.7481C17.1912 20.8587 17.2792 20.9441 17.3897 20.9441H18.8973C18.9241 20.9441 18.9506 20.9387 18.9754 20.9283C19.0001 20.9179 19.0225 20.9027 19.0412 20.8835C19.0599 20.8643 19.0746 20.8415 19.0844 20.8165C19.0942 20.7916 19.0989 20.7649 19.0983 20.7381C19.0731 19.5371 18.8244 18.3687 18.3571 17.2657V17.2657ZM9.65103 11.4969C8.49777 11.4969 7.41234 11.0471 6.59576 10.2305C5.77918 9.41394 5.32943 8.32851 5.32943 7.17525C5.32943 6.02198 5.77918 4.93655 6.59576 4.11997C7.41234 3.30339 8.49777 2.85364 9.65103 2.85364C10.8043 2.85364 11.8897 3.30339 12.7063 4.11997C13.5229 4.93655 13.9726 6.02198 13.9726 7.17525C13.9726 8.32851 13.5229 9.41394 12.7063 10.2305C11.8897 11.0471 10.8043 11.4969 9.65103 11.4969Z" fill="#787878"/>
</svg>
